<?xml version="1.0" encoding="UTF-8"?>
<svg id="Layer_1" data-name="Layer 1" xmlns="http://www.w3.org/2000/svg" width="96" height="154" version="1.1" viewBox="0 0 96 154">
  <defs>
    <style>
      .cls-1 {
        fill: #000;
      }

      .cls-1, .cls-2, .cls-3, .cls-4 {
        stroke-width: 0px;
      }

      .cls-2 {
        fill: red;
      }

      .cls-3 {
        fill: #0e0e9c;
      }

      .cls-4 {
        fill: #fff;
      }
    </style>
  </defs>
  <path class="cls-4" d="M50.621,7.929l3.274-.002c2.532,0,3.957-1.464,4.363-2.761.674-1.919-.912-2.804-2.739-2.804-1.89,0-4.381,1.061-5.816,3.04-.927,1.278-.689,2.528.919,2.527Z"/>
  <path class="cls-4" d="M29.044,35.013c5.905-2.498,12.177-3.764,18.642-3.764s12.737,1.266,18.642,3.764c5.703,2.412,10.825,5.865,15.222,10.263,1.087,1.087,2.115,2.218,3.084,3.391.004-5.417.007-9.002.007-9.708,0-13.228-7.151-14.542-7.151-22.716.947,0,1.19-.582,1.19-1.983,0-1.084-.063-1.665-1.369-1.859-1.592-.236-10.384-.561-20.078-.706.929-1.575,2.827-4.997,3.208-5.726,1.435-2.745,1.076-6.198-3.572-6.198-5.487,0-9.19,4.771-10.195,6.36-.437.69-1.719,3.021-3.152,5.505-11.605.084-23.582.487-25.462.766-1.305.194-1.369.774-1.369,1.859,0,1.401.243,1.983,1.19,1.983,0,8.174-7.151,9.488-7.151,22.716,0,.705.003,4.291.007,9.708.97-1.173,1.998-2.304,3.084-3.391,4.398-4.398,9.519-7.851,15.222-10.263ZM49.702,5.402c1.435-1.978,3.926-3.04,5.816-3.04,1.827,0,3.413.884,2.739,2.804-.406,1.297-1.831,2.761-4.363,2.761l-3.274.002c-1.608,0-1.846-1.249-.919-2.527Z"/>
  <path class="cls-4" d="M66.328,123.266c-5.905,2.498-12.177,3.764-18.642,3.764s-12.737-1.266-18.642-3.764c-5.703-2.412-10.825-5.865-15.222-10.263-1.069-1.069-2.079-2.182-3.035-3.334.012,15.194.022,27.056.022,28.019,0,5.979,1.846,6.773,5.189,8.55,1.69.898,2.262,1.886,2.879,3.005.751,1.363.754,1.935,2.639,2.366,4.564,1.043,13.205,1.693,26.203,1.693s21.573-.649,26.137-1.693c1.884-.431,1.888-1.003,2.639-2.366.617-1.119,1.189-2.107,2.879-3.005,3.343-1.777,5.189-2.571,5.189-8.55,0-.963.01-12.825.022-28.019-.956,1.152-1.966,2.265-3.035,3.334-4.398,4.398-9.519,7.851-15.222,10.263Z"/>
  <path class="cls-4" d="M53.118,74.625h-2.472v5.269l2.309-.934c1.478-.554,2.309-1.208,2.309-2.569,0-1.12-.789-1.767-2.146-1.767Z"/>
  <path class="cls-4" d="M47.686,33.017C22.213,33.017,1.563,53.666,1.563,79.139s20.65,46.123,46.123,46.123,46.123-20.65,46.123-46.123-20.65-46.123-46.123-46.123ZM8.002,70.234h9.501c4.937,0,7.399,2.12,7.399,5.883,0,3.897-2.714,5.337-6.418,6.697l-4.381,1.638v3.347h-6.1v-17.565ZM47.652,122.091c-17.065,0-32.507-10.185-39.32-25.814,4.596,1.59,10.52,2.322,17.031,2.322,14.901,0,29.939-5.351,44.407-5.351,5.712,0,11.976,1.225,17.297,3.028-6.924,15.514-22.37,25.814-39.415,25.814ZM40.004,76.901v4.228h-7.306v2.274h9.399v4.396h-15.496v-17.567h15.39v4.396h-9.293v2.274h7.306ZM62.526,75.421c0-3.615,3.372-5.587,7.939-5.587,5.42,0,7.894,1.875,8.514,4.33l-4.939,1.868c-.394-1.253-1.457-1.874-3.395-1.874-1.398,0-2.188.518-2.188,1.2,0,2.351,10.93.755,10.93,7.202,0,3.72-3.424,5.825-8.327,5.825-5.149,0-8.604-1.435-9.762-4.445l4.897-1.845c.673,1.38,2.338,1.999,4.828,1.999,1.657,0,2.433-.45,2.433-1.2,0-2.482-10.93-.749-10.93-7.475ZM55.027,82.814l-4.381,1.638v3.347h-6.1v-17.565h9.501c4.937,0,7.399,2.12,7.399,5.883,0,3.897-2.714,5.337-6.418,6.697ZM87.33,87.799h-6.213l.045-15.666,6.168-2.185v17.85ZM70.012,59.732c-14.901,0-29.939,5.351-44.407,5.351-5.712,0-11.976-1.225-17.297-3.028,6.924-15.514,22.37-25.814,39.415-25.814s32.507,10.185,39.32,25.814c-4.596-1.59-10.52-2.322-17.031-2.322Z"/>
  <path class="cls-4" d="M18.72,76.392c0-1.12-.789-1.767-2.146-1.767h-2.472v5.269l2.309-.934c1.478-.554,2.309-1.208,2.309-2.569Z"/>
  <path class="cls-1" d="M84.635,48.666c-.97-1.173-1.998-2.304-3.084-3.391-4.398-4.398-9.519-7.851-15.222-10.263-5.905-2.498-12.177-3.764-18.642-3.764s-12.737,1.266-18.642,3.764c-5.703,2.412-10.825,5.865-15.222,10.263-1.087,1.087-2.115,2.218-3.084,3.391-2.955,3.574-5.362,7.537-7.178,11.831-2.498,5.905-3.764,12.177-3.764,18.642s1.266,12.737,3.764,18.642c1.826,4.317,4.251,8.299,7.228,11.888.956,1.152,1.966,2.265,3.035,3.334,4.398,4.398,9.519,7.851,15.222,10.263,5.905,2.498,12.177,3.764,18.642,3.764s12.737-1.266,18.642-3.764c5.703-2.412,10.825-5.865,15.222-10.263,1.069-1.069,2.079-2.182,3.035-3.334,2.977-3.589,5.402-7.571,7.228-11.888,2.498-5.905,3.764-12.177,3.764-18.642s-1.266-12.737-3.764-18.642c-1.816-4.294-4.223-8.257-7.178-11.831ZM47.686,125.262c-25.473,0-46.123-20.65-46.123-46.123s20.65-46.123,46.123-46.123,46.123,20.65,46.123,46.123-20.65,46.123-46.123,46.123Z"/>
  <path class="cls-2" d="M47.723,36.24c-17.045,0-32.491,10.3-39.415,25.814,5.321,1.803,11.585,3.028,17.297,3.028,14.468,0,29.506-5.351,44.407-5.351,6.511,0,12.435.732,17.031,2.322-6.813-15.63-22.256-25.814-39.32-25.814Z"/>
  <path class="cls-3" d="M69.77,93.249c-14.468,0-29.506,5.351-44.407,5.351-6.511,0-12.435-.732-17.031-2.322,6.813,15.63,22.256,25.814,39.32,25.814s32.491-10.3,39.415-25.814c-5.321-1.803-11.585-3.028-17.297-3.028Z"/>
  <path class="cls-1" d="M71.023,84.095c-2.489,0-4.154-.619-4.828-1.999l-4.897,1.845c1.158,3.01,4.612,4.445,9.762,4.445,4.903,0,8.327-2.105,8.327-5.825,0-6.447-10.93-4.851-10.93-7.202,0-.682.79-1.2,2.188-1.2,1.938,0,3.001.621,3.395,1.874l4.939-1.868c-.62-2.456-3.094-4.33-8.514-4.33-4.567,0-7.939,1.972-7.939,5.587,0,6.726,10.93,4.993,10.93,7.475,0,.75-.776,1.2-2.433,1.2Z"/>
  <path class="cls-1" d="M54.047,70.234h-9.501v17.565h6.1v-3.347l4.381-1.638c3.704-1.36,6.418-2.8,6.418-6.697,0-3.763-2.462-5.883-7.399-5.883ZM52.955,78.961l-2.309.934v-5.269h2.472c1.357,0,2.146.647,2.146,1.767,0,1.362-.832,2.015-2.309,2.569Z"/>
  <path class="cls-1" d="M14.102,87.799v-3.347l4.381-1.638c3.704-1.36,6.418-2.8,6.418-6.697,0-3.763-2.462-5.883-7.399-5.883h-9.501v17.565h6.1ZM14.102,74.625h2.472c1.357,0,2.146.647,2.146,1.767,0,1.362-.832,2.015-2.309,2.569l-2.309.934v-5.269Z"/>
  <polygon class="cls-1" points="41.991 74.627 41.991 70.231 26.6 70.231 26.6 87.799 42.097 87.799 42.097 83.403 32.698 83.403 32.698 81.129 40.004 81.129 40.004 76.901 32.698 76.901 32.698 74.627 41.991 74.627"/>
  <polygon class="cls-1" points="81.162 72.133 81.117 87.799 87.33 87.799 87.33 69.948 81.162 72.133"/>
</svg>