<svg id="Capa_1" data-name="Capa 1" xmlns="http://www.w3.org/2000/svg" viewBox="0 0 663.95 573.2"><defs><style>.cls-1{fill:#ce3743;}.cls-2{fill:#00b0eb;}.cls-3{fill:#69c8f3;}.cls-4{fill:#005892;}.cls-5{fill:#cb383f;}.cls-6{opacity:0.15;}.cls-7{fill:#f7f7f7;}.cls-8{fill:#f6f6f6;}.cls-9{fill:#e6233b;}</style></defs><polygon class="cls-1" points="21 139.3 60.83 160.71 17.2 149.32 21 139.3"/><polygon class="cls-1" points="41.05 139.3 56.49 145.8 44.03 135.24 41.05 139.3"/><polygon class="cls-1" points="38.61 122.77 70.04 144.99 42.4 116.81 38.61 122.77"/><polygon class="cls-1" points="181.93 70.45 193.31 61.24 213.91 102.43 181.93 70.45"/><polygon class="cls-1" points="228.54 78.31 235.04 73.16 251.84 108.12 228.54 78.31"/><polygon class="cls-1" points="449.11 92.4 453.45 99.45 466.72 72.89 449.11 92.4"/><polygon class="cls-1" points="502.22 0 492.74 31.16 514.96 4.88 502.22 0"/><polygon class="cls-1" points="606 310.81 617.93 330.32 634.19 315.41 621.18 299.16 606 310.81"/><polygon class="cls-1" points="556.69 462.01 580.53 488.02 585.14 481.25 556.69 462.01"/><polygon class="cls-1" points="588.12 464.72 606.82 478 610.07 470.95 588.12 464.72"/><polygon class="cls-1" points="204.42 508.08 171.9 536.26 191.69 546.83 204.42 508.08"/><polygon class="cls-1" points="95.76 424.62 109.31 436.81 119.88 421.91 104.97 408.9 95.76 424.62"/><path class="cls-1" d="M113.18,304.73c-2.51.12-5,.19-7.54.35-2.25.15-4.5.05-6.75.22-2.83.22-5.14,1.48-5.55,4.51a10,10,0,0,0,.22,3.39,7.28,7.28,0,0,0,.78,2.18A3.4,3.4,0,0,0,96,316.9a4.35,4.35,0,0,0,2.69-.07c4.34-1.25,7.5-4.83,10.57-7.92,1-1,1.9-2,2.81-3C112.25,305.79,113,304.75,113.18,304.73Z" transform="translate(-64.03 -19.4)"/><path class="cls-2" d="M121,383.77c-5.26-1.36-11.81-4.53-11-9.9.62-4,5.14-6,9.08-7,10.74-2.6,22-2.77,32.54-6.23s20.67-11.48,21.9-22.47a28.15,28.15,0,0,0-1.76-12.3c-4.28-12.27-13.28-22.2-20.11-33.25s-11.54-25-6.24-36.89,18.62-17.62,27.45-27.12A41.54,41.54,0,0,0,184,201.42a38.63,38.63,0,0,0-10.63-27.31A52.37,52.37,0,0,0,160.86,165c-3.57-2-7.47-3.9-9.57-7.4s-1.18-9.13,2.75-10.22c2.11-.58,4.36.3,6.2,1.48,6.25,4,9.68,11.12,14.86,16.43s14.5,8.47,19.68,3.16c3.78-3.88-.74-10.28-3.93-14.66-12.7-17.41-36.66-24.69-47.22-43.48-2-3.59-3.43-8.14-1.39-11.72a9.11,9.11,0,0,1,5.55-4c5.86-1.66,12.22,1.25,16.47,5.61s6.89,10,9.74,15.37a168.27,168.27,0,0,0,13.06,20.79,16.84,16.84,0,0,0,5.15,5.14c2.15,1.17,5,1.31,6.88-.32,4.68-4.14-1.41-14.4,4.17-17.22,3-1.53,6.47,1.13,8.47,3.86,4.79,6.58,7.08,14.61,10.77,21.86,7.81,15.35,21.6,26.69,35.47,36.89,3,2.23,7.76,4.26,10.07,1.28,1.35-1.74.85-4.37-.51-6.11s-3.37-2.79-5.28-3.89a78,78,0,0,1-14.63-10.85c-4-3.76-7.66-10.16-4-14.24,2.9-3.22,8.5-2,11.57,1s4.48,7.36,6.51,11.2a36.46,36.46,0,0,0,12.48,13.56,4.23,4.23,0,0,0,2.29.86,3.47,3.47,0,0,0,2.79-2.4c2-5-1.85-10.14-4.78-14.64s-4.51-11.62.14-14.3c4-2.33,8.94,1.08,12,4.61s6.44,7.83,11.09,7.59c9.49-.49,18.52-8.88,23.27-17.11a32.6,32.6,0,0,0,2.22-27.47c-1.88-4.95-4.93-9.34-7.43-14s-4.49-9.85-3.94-15.11,4.3-10.47,9.53-11.22,10.18,3.09,12.48,7.81,2.52,10.14,2.67,15.39c.4,13.64.66,27.33-.45,40.94-.36,4.4-.82,9,.95,13.07s6.69,7.09,10.67,5.17c3.68-1.79,4.59-6.5,5.42-10.51s2.89-8.69,7-9.06c2.08-.19,4.14.89,6.22.62,2.52-.32,4.43-2.61,5.12-5.06a19.52,19.52,0,0,0,.07-7.58l-1.52-12.56c-.69-5.77-.51-13.18,4.85-15.44,2.91-1.23,6.42-.22,8.81,1.85a18.34,18.34,0,0,1,4.9,8c3.56,10.1,3.16,21.13,5.37,31.6.57,2.7,1.38,5.48,3.31,7.45s5.26,2.79,7.46,1.14,2.36-4.83,2.6-7.57c.33-3.85,1.28-7.8,3.75-10.77s6.79-4.64,10.35-3.15c4.79,2,6,8.41,4.79,13.46-.73,3-2.07,5.91-2,9s2.16,6.5,5.25,6.49c11.67,0,20.36-8.35,25.75-18.71s9.47-22.27,19.09-28.88c3.92-2.69,10.19-3.8,12.72.22,2,3.17.1,7.45-2.63,10s-6.25,4.26-8.67,7.12c-5.18,6.11-2.86,16.91,4.38,20.35s17.09-1.6,18.54-9.48c.76-4.1,1.11-10.19,5.29-10,2.59.11,4.08,3.18,4,5.78s-1.24,5.08-1.29,7.68c-.16,8.55,11.86,12.95,19.27,8.67s10.52-13.32,11.85-21.77,1.54-17.35,5.52-24.92c1.63-3.08,4.15-6,7.57-6.68,6.12-1.16,11.11,6,10.44,12.21s-4.9,11.3-8.66,16.26a152.23,152.23,0,0,0-15.09,24.35c-4.27,8.59-7.62,19.22-2.58,27.38,4.4,7.12,14.07,9.57,22.21,7.65s15-7.36,21-13.19c8.8-8.54,16.72-18.87,18.62-31,.82-5.3,3-12.85,8.2-11.47,3.6,1,4.29,5.8,3.65,9.47-1.83,10.54-8.37,19.59-15,28s-13.66,16.9-16.81,27.13-1.35,22.84,7.24,29.22c6.68,5,15.87,5.1,24,3.18,19.26-4.56,34.52-18.89,48.15-33.25,2.15-2.27,4.41-4.63,7.35-5.71s6.79-.4,8.32,2.34c2.22,4-1.61,8.56-5.1,11.52L650.76,212.5c-4.16,3.53-8.58,7.5-9.56,12.87s3.87,11.83,9.06,10.14c4.63-1.5,7.13-8.39,11.93-7.56,3.31.57,4.73,4.93,3.55,8.07s-4,5.31-6.68,7.36c-11.76,9.12-23.38,21.82-22,36.64.83,8.73,6.19,17.1,4.46,25.69-1.26,6.23-6.08,11.29-7.29,17.52a24,24,0,0,0,1.13,11.61A49,49,0,0,0,663,365.16c4,1.65,8.4,2.89,11.33,6.07s3.28,9.22-.57,11.2-8.35-1.54-11.74-4.43c-7-6-15.77-10.08-24.93-10.3s-18.62,3.86-23.78,11.44c-3,4.38-4.41,9.6-6,14.67-4.77,15.57-13.8,32.84-29.91,35.22-12.47,1.83-26.5-6-37.1.83-10.18,6.53-9.36,21.38-7.56,33.34s1.94,27-8.69,32.8c-12,6.52-24.88,12.11-31.15,24.24-4.82,9.33-6.21,20.19-11.48,29.27-1.22,2.11-2.81,4.23-5.14,4.94-5,1.51-9.35-4.58-9-9.78s3.33-9.83,4.55-14.9-.38-11.74-5.45-12.93c-4-.94-7.92,2.19-10.25,5.62s-3.93,7.48-7.15,10.1c-5.36,4.37-13.87,3.09-19-1.57s-7.28-11.84-7.59-18.75c-.23-5.16.44-10.39-.51-15.46-1.06-5.68-4.09-10.79-7.37-15.55-4.18-6.06-9.72-12.26-17.05-12.77-6.5-.46-12.45,3.79-16.65,8.76a45.26,45.26,0,0,0-10.52,26.45c-.51,9.15,1.72,18.79-1.85,27.23-1.34,3.19-4.33,6.38-7.7,5.63-3.53-.79-4.78-5.47-3.64-8.91s3.8-6.1,5.66-9.2a21.69,21.69,0,0,0,3.06-11.78c-.11-3.13-1-6.46-3.49-8.43-5.17-4.17-13.35.7-15.45,7s-.49,13.15-.3,19.79a46.25,46.25,0,0,1-10.78,30.87c-2.68,3.16-6.67,6.18-10.61,4.91-3-1-4.8-4.24-5.27-7.4s.06-6.37,0-9.56a3.71,3.71,0,0,0-.82-2.65c-1.87-1.79-4.45,1-6.43,2.71-4.05,3.41-10.82,1.43-13.79-3s-2.88-10.21-1.59-15.36c2.6-10.35,9.46-19.16,12.6-29.36s.66-23.86-9.43-27.31c-6.79-2.33-14.2.94-20.18,4.91s-11.74,8.83-18.79,10.18a8,8,0,0,1-3.54,0c-5.64-1.56-4-10-6.3-15.39a14.76,14.76,0,0,0-6-6.27c-12.53-7.84-30.51-5.37-40.46,5.56-12.44,13.68-30.2,24.5-37,41.68a90.44,90.44,0,0,0-4.53,16.84A213,213,0,0,0,160,566c0,6.9.15,14.45-4.15,19.84-4.69,5.86-13.74,7.06-20.48,3.78s-11.2-10.23-12.87-17.54a34.11,34.11,0,0,1,3.36-23.85c3.53-6.41,9-11.46,13.69-17.08a81.77,81.77,0,0,0,13.64-23.42c-2.67-2.24-6.6.13-9.27,2.37s-6.87,4.33-9.24,1.79a4.89,4.89,0,0,1-1.16-3.25c-.14-4.85,3.94-8.68,7.81-11.6,20.44-15.37,44.88-25.25,63.64-42.63,2.7-2.51,5.33-5.23,6.85-8.59s1.8-7.49-.14-10.63c-3.26-5.31-10.75-5.6-17-5.16s-13.6.52-17.28-4.51c-4.22-5.77-.44-13.9,4.05-19.47,2.12-2.62,4.5-5.32,5-8.66.61-4.17-2-8.32-5.62-10.54s-7.92-2.86-12.13-3a67.67,67.67,0,0,0-45.31,15c-7.32,6-13.92,13.78-23.15,15.78-2.76-4,.3-9.61,4.39-12.2s9.09-3.52,13-6.32,6.39-8.91,3-12.4C121.37,383.07,120.36,384.42,121,383.77Z" transform="translate(-64.03 -19.4)"/><path class="cls-2" d="M270.94,570.87c-1,2.61-2,5.35-1.87,8.15s1.69,5.73,4.36,6.64c3.27,1.12,6.83-1.18,8.76-4.06,2.12-3.17,3-7,3.68-10.75q1.58-8.39,2.41-16.88c.48-4.75,2.33-12.7.49-17.09C280.46,544.55,275.05,560.46,270.94,570.87Z" transform="translate(-64.03 -19.4)"/><path class="cls-2" d="M614.12,536a18.13,18.13,0,0,0,4.22,7,8.69,8.69,0,0,0,7.52,2.49c3.34-.69,5.73-3.89,6.4-7.23s-.09-6.82-1.09-10.08c-4.57-14.94-18.37-36.08-34.73-40.08,2.24,5.5,8,9.3,10.29,15.27C610.74,513.88,610.17,525.49,614.12,536Z" transform="translate(-64.03 -19.4)"/><path class="cls-2" d="M93.19,394a28.91,28.91,0,0,0-10.54,10.83c-1.48,2.67-2.19,6.67.43,8.23a4.42,4.42,0,0,0,4.82-.61,10.46,10.46,0,0,0,2.86-4.24,35.64,35.64,0,0,0,2.84-15.05" transform="translate(-64.03 -19.4)"/><path class="cls-2" d="M124.17,92.51a26.2,26.2,0,0,1-9.48-6.29c-1.49-1.55-2.84-3.43-2.92-5.57s1.66-4.44,3.79-4.24,3.34,2.5,4.15,4.49l5,12.32" transform="translate(-64.03 -19.4)"/><path class="cls-2" d="M697,262.18c3.18-3.39,6.62-6.67,10.83-8.64s9.34-2.48,13.46-.32,6.71,7.38,5,11.71c-1.8,4.6-7.15,6.49-11.82,8.08a150.33,150.33,0,0,0-24.42,10.82c-6.27,3.48-10.47,8.11-15.75,12.62C678.63,283.91,688,271.78,697,262.18Z" transform="translate(-64.03 -19.4)"/><circle class="cls-2" cx="64.54" cy="207.93" r="6.5"/><circle class="cls-2" cx="48.82" cy="264.29" r="6.5"/><circle class="cls-2" cx="231.19" cy="39.65" r="5.69"/><circle class="cls-2" cx="381.03" cy="72.44" r="5.42"/><circle class="cls-2" cx="615.16" cy="213.89" r="5.96"/><circle class="cls-2" cx="653.09" cy="356.42" r="5.42"/><circle class="cls-2" cx="600.79" cy="410.89" r="6.77"/><circle class="cls-2" cx="505.41" cy="481.34" r="7.86"/><circle class="cls-2" cx="7.9" cy="408.72" r="6.77"/><path class="cls-3" d="M149.47,96.94a14.88,14.88,0,0,1,10,3.3c2.79,2.15,4.65,5.17,6.34,8.19.91,1.62,1.8,3.24,2.82,4.79,1.16,1.75,2.44,3.41,3.74,5.06,1.83,2.33,3.64,4.65,5.24,7.14,1.22,1.9,2.46,3.79,3.75,5.64,3,4.31,6.29,8.75,10.5,11.95a10.05,10.05,0,0,0,5.48,2.43c2.11.07,3.48-1.22,4.34-3,1-2.16,1.44-4.54,2.39-6.72.78-1.8,2.14-3.52,4.31-3.26,2.59.31,3.62,3.42,4.32,5.51a50.27,50.27,0,0,0,4.19,9.46c1.82,3.1,3.88,6.06,5.94,9,1.93,2.75,3.93,5.45,6.06,8.05a65.17,65.17,0,0,0,14.7,13.72A38.25,38.25,0,0,0,254.17,183c-12.2-9.3-23.82-19.75-30.74-33.35-3.69-7.25-6-15.28-10.78-21.86-2-2.73-5.44-5.39-8.47-3.86-5.58,2.82.52,13.08-4.16,17.22-1.83,1.63-4.73,1.49-6.88.32a16.87,16.87,0,0,1-5.16-5.14,167,167,0,0,1-13-20.79c-2.86-5.38-5.49-11-9.74-15.37s-10.61-7.27-16.47-5.61a9.13,9.13,0,0,0-5.56,4,6.94,6.94,0,0,0-.39.83A14.57,14.57,0,0,1,149.47,96.94Z" transform="translate(-64.03 -19.4)"/><path class="cls-3" d="M323.55,80.15c4.29,3.86,6.83,9.51,7.91,15.09,1.25,6.39.74,12.93,1.15,19.4a55.85,55.85,0,0,0,3.7,16.1c.33.88.68,1.75,1.05,2.62.63-11.61.4-23.27.06-34.89-.16-5.25-.37-10.67-2.67-15.39s-7.28-8.55-12.48-7.81A9.68,9.68,0,0,0,318,77.05,13.26,13.26,0,0,1,323.55,80.15Z" transform="translate(-64.03 -19.4)"/><path class="cls-3" d="M373.82,104.52c3-1.18,6.15,1.4,7.93,3.6,2.11,2.63,3.21,5.91,4.18,9.09s1.87,6.67,3.74,9.56a15,15,0,0,0,3.76,4c-.92-7.74-1.42-15.56-4-22.88a18.53,18.53,0,0,0-4.9-8c-2.4-2.07-5.9-3.08-8.81-1.85-3.52,1.48-4.81,5.19-5.08,9.2A7.79,7.79,0,0,1,373.82,104.52Z" transform="translate(-64.03 -19.4)"/><path class="cls-3" d="M460.5,132.66c2.53-2.72,4.41-5.94,6.48-9a36.63,36.63,0,0,1,4.51-5.57,10.8,10.8,0,0,1,4.95-3.19,21.34,21.34,0,0,1,4.59-.09,6.87,6.87,0,0,0,4.7-1.47,10.82,10.82,0,0,0,2.71-3.76,5.35,5.35,0,0,0-.61-1.39c-2.52-4-8.8-2.91-12.71-.22-9.28,6.37-13.4,17.65-18.51,27.73A13.22,13.22,0,0,0,460.5,132.66Z" transform="translate(-64.03 -19.4)"/><path class="cls-3" d="M546.59,101.53a7.34,7.34,0,0,1,6.71,2.94c2.74,4.11.89,9.85-.93,13.93-2.35,5.26-5.89,9.86-9,14.69a44.84,44.84,0,0,0-6.32,15c-.25,1.21-.45,2.43-.61,3.66.58-1.37,1.19-2.71,1.84-4a152.89,152.89,0,0,1,15.08-24.35c3.76-5,8-10.07,8.67-16.26S557.75,93.79,551.63,95c-3.43.64-6,3.6-7.57,6.68l-.26.53A10.48,10.48,0,0,1,546.59,101.53Z" transform="translate(-64.03 -19.4)"/><path class="cls-3" d="M533.24,469.37a47,47,0,0,1-7.61,12c-1.55,1.89-3.13,3.77-4.79,5.56a57.38,57.38,0,0,1-5.18,4.8c-3.71,3.09-7.66,5.88-11.41,8.93a46,46,0,0,0-10,10.57,82.57,82.57,0,0,0-6.62,13.52c-.95,2.31-1.87,4.62-2.85,6.92-.73,1.72-1.5,3.43-2.16,5.19-1.06,2.8-2.28,6.44-5.17,7.86a4.8,4.8,0,0,1-4.26-.06,6.94,6.94,0,0,1-2.82-3.21,15.13,15.13,0,0,1-.89-2.22,20.44,20.44,0,0,0-1.17,5.4c-.33,5.2,4,11.29,9,9.78,2.33-.71,3.93-2.83,5.15-4.94,5.27-9.08,6.65-19.94,11.48-29.27,6.27-12.13,19.15-17.72,31.15-24.24,9.64-5.23,10.42-18.12,9.14-29.4C533.92,467.54,533.6,468.47,533.24,469.37Z" transform="translate(-64.03 -19.4)"/><path class="cls-3" d="M370.43,517.42A33.93,33.93,0,0,1,366.22,528c-1.54,2.55-4.32,6-7.68,4.28a4.39,4.39,0,0,1-.7-.44c.42,2.23,1.72,4.19,3.89,4.68,3.38.75,6.36-2.44,7.71-5.63,2.6-6.16,2.12-13,1.87-19.73C371.09,513.26,370.85,515.35,370.43,517.42Z" transform="translate(-64.03 -19.4)"/><path class="cls-3" d="M183.13,484.06a83.35,83.35,0,0,0-13.73,15.86A57,57,0,0,0,162,518.09a150.7,150.7,0,0,0-2.68,19.16c-.63,6.58-1.34,13.23-3.23,19.59-1.63,5.47-4.24,11.94-10.1,14-5.56,1.93-11.64-.74-16.18-3.92a20.37,20.37,0,0,1-5.75-5.91,19.84,19.84,0,0,1-1-1.88,33.91,33.91,0,0,0,.37,13c1.67,7.31,6.12,14.26,12.86,17.54s15.8,2.08,20.48-3.78c4.31-5.39,4.17-12.94,4.15-19.84a213.89,213.89,0,0,1,3.63-39.6,89.67,89.67,0,0,1,4.53-16.84c6.84-17.18,24.59-28,37-41.68l.15-.15A107.7,107.7,0,0,0,183.13,484.06Z" transform="translate(-64.03 -19.4)"/><path class="cls-3" d="M102.38,412.92a14.62,14.62,0,0,1,4.17-6.84,34.63,34.63,0,0,1,3.31-2.86,29.63,29.63,0,0,1,3.82-2.66,32.51,32.51,0,0,0,6.69-4.34,11,11,0,0,0,3.63-6.89,7.72,7.72,0,0,0-1.78-6.46c-1.35-1.42-3.12-2.36-4.58-3.64a9.93,9.93,0,0,1-3.4-5.67,15.18,15.18,0,0,1-.11-4.26,6.81,6.81,0,0,0-3.22,4.57c-.82,5.3,5.55,8.46,10.78,9.84h0l.07.09,0-.07.11,0-.09.09c3.15,3.51.73,9.5-3.16,12.26s-8.94,3.73-13,6.32-7.15,8.22-4.4,12.2c.32-.07.63-.16,1-.24A8.38,8.38,0,0,1,102.38,412.92Z" transform="translate(-64.03 -19.4)"/><path class="cls-3" d="M146.33,255.77c-5.3,11.86-.59,25.83,6.24,36.89,2,3.23,4.18,6.36,6.37,9.48-.3-1-.6-2.09-.87-3.14a134.63,134.63,0,0,1-3.13-16.68,64.47,64.47,0,0,1-.11-17.33,32.92,32.92,0,0,1,2-7.95,29.14,29.14,0,0,1,3.24-5.76,77.08,77.08,0,0,1,9-10A62.45,62.45,0,0,0,178,231.09a31.65,31.65,0,0,0,4.76-13.54,39.1,39.1,0,0,0,.28-4.85,42.06,42.06,0,0,1-9.26,16C165,238.15,151.62,243.92,146.33,255.77Z" transform="translate(-64.03 -19.4)"/><path class="cls-3" d="M666.66,236c1.19-3.14-.23-7.5-3.54-8.07a5.18,5.18,0,0,0-4.07,1.17,3.08,3.08,0,0,1,.61.84,6.34,6.34,0,0,1,.26,4,21.25,21.25,0,0,1-4.6,9.16c-3.51,4.31-8,7.69-12.25,11.22s-8.78,7.47-10.91,12.77a14.16,14.16,0,0,0-.59,8.37,40.79,40.79,0,0,0,3,7.66,23,23,0,0,1,2.05,8.26,34.17,34.17,0,0,1-.83,8.73c-1.23,5.8-3.44,11.34-4.67,17.14-1.17,5.52-1.06,11.54,1.21,16.77,2,4.64,5.69,8.23,9.11,11.91a47.66,47.66,0,0,1-5.13-11.08,24.08,24.08,0,0,1-1.12-11.61c1.21-6.23,6-11.29,7.28-17.52,1.74-8.59-3.63-17-4.45-25.69-1.4-14.82,10.22-27.52,22-36.64C662.64,241.33,665.48,239.17,666.66,236Z" transform="translate(-64.03 -19.4)"/><path class="cls-3" d="M289.7,536.88c-.19.17-.37.37-.56.56a71.16,71.16,0,0,1-.64,8.9,126.14,126.14,0,0,1-2.73,15.57c-1.09,4.49-2.4,9.17-4.78,13.17-1.41,2.39-3.86,5.31-7,4.24a6,6,0,0,1-3.52-4.36A13.64,13.64,0,0,0,270,579c.15,2.81,1.7,5.73,4.36,6.64,3.28,1.12,6.84-1.18,8.76-4,2.13-3.18,3-7,3.68-10.76q1.57-8.39,2.42-16.88C289.68,549.22,291.54,541.27,289.7,536.88Z" transform="translate(-64.03 -19.4)"/><path class="cls-3" d="M632.1,528.19c-4.32-14.09-16.84-33.69-32-39.22l.43.32a36.32,36.32,0,0,1,6.19,6.68c3.29,4.4,6.24,9.11,9.2,13.74,3.73,5.83,7.34,12,9.15,18.71a34.81,34.81,0,0,1,.93,4.76,10.78,10.78,0,0,1-.1,3.76,3.78,3.78,0,0,1-1.57,2.43,4.37,4.37,0,0,1-3.47.26c-3.64-1.07-5.42-4.42-7.14-7.64.37,1.36.79,2.7,1.29,4a18.25,18.25,0,0,0,4.22,7,8.7,8.7,0,0,0,7.52,2.49c3.34-.69,5.74-3.89,6.4-7.23S633.1,531.45,632.1,528.19Z" transform="translate(-64.03 -19.4)"/><path class="cls-3" d="M92.74,396c-2.33,3.45-4.65,7.39-5.3,11.57a6.75,6.75,0,0,0,.69,4.71c.1.14.21.28.32.41l.38-.26a10.46,10.46,0,0,0,2.86-4.24,35.79,35.79,0,0,0,2.84-14.69C93.91,394.31,93.31,395.15,92.74,396Z" transform="translate(-64.03 -19.4)"/><path class="cls-3" d="M114.58,79.48a13.59,13.59,0,0,1,4,3.83,28.26,28.26,0,0,0,3.8,4.16,9.54,9.54,0,0,0,1.24.87l-3-7.44c-.8-2-2-4.29-4.14-4.49A3.61,3.61,0,0,0,113,79,4.61,4.61,0,0,1,114.58,79.48Z" transform="translate(-64.03 -19.4)"/><path class="cls-3" d="M722.24,253.22c-4.06-2.12-9.09-1.67-13.26.23a8.68,8.68,0,0,1,1,.2c2.32.62,4.78,2,5.47,4.47,1.09,3.91-2,8-4.7,10.46-4.34,4-9.34,7.16-14.3,10.31-2.51,1.6-5,3.2-7.44,4.93a78.53,78.53,0,0,0-6.54,5.24,47.24,47.24,0,0,0-7,7.17c5.17-4.44,9.33-9,15.51-12.4A149.85,149.85,0,0,1,715.42,273c4.68-1.59,10-3.48,11.83-8.08C728.94,260.6,726.36,255.38,722.24,253.22Z" transform="translate(-64.03 -19.4)"/><circle class="cls-3" cx="49.75" cy="264.29" r="6.5"/><path class="cls-3" d="M293,54.79a5.32,5.32,0,0,1,3.67,2.2,19.43,19.43,0,0,1,1.7,3.18A8.35,8.35,0,0,0,300.22,63a5.67,5.67,0,0,0-7.75-8.26A4.23,4.23,0,0,1,293,54.79Z" transform="translate(-64.03 -19.4)"/><path class="cls-3" d="M450.22,88.5c0,.12,0,.24,0,.36a9.3,9.3,0,0,1-2.4,4.13,21.39,21.39,0,0,0-2.85,3.1,7.31,7.31,0,0,0-.46.93,5.49,5.49,0,0,0,1.52.24,5.42,5.42,0,0,0,5.42-5.42A5.35,5.35,0,0,0,450.22,88.5Z" transform="translate(-64.03 -19.4)"/><circle class="cls-3" cx="654.02" cy="356.42" r="5.42"/><path class="cls-3" d="M71.74,424.37a5.35,5.35,0,0,0,.4,3.83,10.78,10.78,0,0,0,5.33,4.87,6.77,6.77,0,0,0-3.56-11.64A6.12,6.12,0,0,0,71.74,424.37Z" transform="translate(-64.03 -19.4)"/><path class="cls-4" d="M143.37,592.6a19.34,19.34,0,0,1-8.46-1.94c-6.54-3.18-11.58-10-13.47-18.3a35.39,35.39,0,0,1,3.47-24.65c2.56-4.64,6.14-8.61,9.59-12.44,1.41-1.57,2.87-3.19,4.23-4.82a80.28,80.28,0,0,0,13.11-22.23c-2.19-.94-5.35,1.26-7.15,2.77-3.21,2.69-8,4.74-10.8,1.7a6.12,6.12,0,0,1-1.46-4c-.16-5.48,4.33-9.57,8.26-12.53,8.63-6.49,18.1-12.08,27.25-17.49,12.54-7.41,25.51-15.06,36.3-25.07,2.56-2.37,5.14-5,6.6-8.23s1.49-7-.08-9.57c-3-4.95-10.55-5-15.93-4.62-7.22.53-14.43.28-18.27-5-5.62-7.69,1.7-17.9,4.08-20.84l.48-.6c1.9-2.33,3.86-4.74,4.27-7.52.58-4-2.14-7.59-5.1-9.42-3.63-2.26-8.09-2.72-11.58-2.88a66.75,66.75,0,0,0-44.55,14.78c-1.69,1.37-3.37,2.88-5,4.34-5.53,4.95-11.25,10.07-18.62,11.66l-.74.16-.43-.62a7.35,7.35,0,0,1-1.08-5.78,13.21,13.21,0,0,1,5.8-8,38.81,38.81,0,0,1,6.32-3,31.51,31.51,0,0,0,6.66-3.28,10.08,10.08,0,0,0,4.11-6.8,5,5,0,0,0-.81-3.39,1.13,1.13,0,0,1-.27-.15.91.91,0,0,1-.22-.22c-7.64-2.16-11.74-6.22-11-10.95.58-3.72,4-6.45,9.93-7.88,4.61-1.11,9.37-1.79,14-2.45,6.16-.88,12.53-1.79,18.48-3.75,9-2.95,19.88-10.36,21.13-21.53a26.55,26.55,0,0,0-1.71-11.8c-2.87-8.23-8-15.58-13-22.69-2.35-3.35-4.79-6.81-7-10.34-5-8.16-12.57-23.94-6.31-37.94,3.45-7.73,10.23-13,16.78-18.05A89.82,89.82,0,0,0,172,227.88a40.49,40.49,0,0,0,10.81-26.48,37.32,37.32,0,0,0-10.31-26.51,50.76,50.76,0,0,0-12.21-9l-.94-.51c-3.43-1.88-7-3.83-9.06-7.29a9.39,9.39,0,0,1-.64-8.06,6.14,6.14,0,0,1,4.06-3.82c2.12-.59,4.51-.05,7.11,1.61,4.07,2.6,7,6.47,9.82,10.21a66,66,0,0,0,5.24,6.39c3.29,3.37,8,5.55,12,5.55a8.13,8.13,0,0,0,6.06-2.4c2.95-3-.54-8.4-4-13.21-5.77-7.91-14.11-13.84-22.17-19.56-9.5-6.75-19.32-13.72-25.11-24-2.78-5-3.28-9.51-1.39-12.83a10.28,10.28,0,0,1,6.22-4.56c6.84-1.93,13.57,1.79,17.59,5.91,3.79,3.89,6.33,8.76,8.79,13.46.38.73.75,1.45,1.14,2.17a166.74,166.74,0,0,0,13,20.65,15.82,15.82,0,0,0,4.78,4.82c1.61.88,4.05,1.2,5.59-.17,1.84-1.63,1.62-4.62,1.4-7.8-.26-3.65-.56-7.79,3-9.59s7.63,1.11,9.89,4.21c3.16,4.33,5.27,9.31,7.31,14.12,1.11,2.63,2.26,5.34,3.56,7.89,8,15.7,22.32,27.07,35.13,36.49,2.29,1.68,6.65,3.89,8.51,1.5,1-1.33.51-3.43-.51-4.72a14.67,14.67,0,0,0-4.48-3.34l-.47-.27a78.77,78.77,0,0,1-14.84-11c-4.77-4.49-8.07-11.35-4.06-15.81a7.08,7.08,0,0,1,5.23-2.29,11.24,11.24,0,0,1,8,3.26c2.38,2.37,3.8,5.4,5.17,8.32.49,1.05,1,2.13,1.54,3.15a35.1,35.1,0,0,0,12.09,13.14,3.51,3.51,0,0,0,1.65.68c.76,0,1.43-.87,1.77-1.69,1.64-4-1.34-8.55-4-12.54l-.7-1.06c-1.85-2.83-3.67-7.54-2.73-11.47a6.84,6.84,0,0,1,3.24-4.43c4.56-2.62,9.91.79,13.4,4.86l.44.52c2.75,3.22,5.86,6.85,9.73,6.67,9.12-.47,17.8-8.65,22.36-16.54A31.3,31.3,0,0,0,322.12,116a63,63,0,0,0-4.82-9.39c-.85-1.45-1.73-3-2.55-4.47-3.26-6.09-4.55-11.1-4.06-15.77.55-5.27,4.42-11.35,10.5-12.21s11.37,3.75,13.64,8.42c2.47,5.07,2.64,10.8,2.79,15.85.38,13.22.67,27.28-.45,41.07l-.05.53c-.34,4.11-.69,8.37.9,12a8.93,8.93,0,0,0,4.91,4.68,5.38,5.38,0,0,0,4.24-.08c3.11-1.51,4-5.74,4.76-9.47l.05-.25c1.24-6,4.15-9.61,8-9.95a11.23,11.23,0,0,1,3.35.34,8.84,8.84,0,0,0,2.83.28c2.13-.27,3.65-2.39,4.17-4.24a18.63,18.63,0,0,0,0-7.14l-1.52-12.57c-1.09-9,.77-14.6,5.53-16.61a9.78,9.78,0,0,1,10,2c2.19,1.89,3.85,4.58,5.22,8.47,2.19,6.22,2.92,12.83,3.62,19.22.46,4.14.93,8.43,1.8,12.53.53,2.53,1.26,5.11,3,6.89,1.5,1.53,4.21,2.36,6,1s1.9-3.85,2.11-6.35l0-.42c.43-4.94,1.74-8.67,4-11.39,2.56-3.07,7.39-5.25,11.64-3.48,5.39,2.25,6.83,9.13,5.46,14.77-.23,1-.53,1.91-.81,2.83a19.72,19.72,0,0,0-1.19,5.9c0,2.54,1.73,5.37,4.1,5.37h0c13.36,0,21.25-11.36,24.76-18.1,1.09-2.09,2.14-4.29,3.16-6.41,4.12-8.58,8.37-17.44,16.29-22.88a13.76,13.76,0,0,1,9.9-2.43,6.66,6.66,0,0,1,4.41,3c2.28,3.64.31,8.51-2.81,11.44a34.63,34.63,0,0,1-3.88,3,25.15,25.15,0,0,0-4.7,4A11.9,11.9,0,1,0,497.42,136c.1-.53.19-1.09.28-1.67.65-4,1.53-9.46,6.16-9.26a4.57,4.57,0,0,1,3.22,1.56,7.7,7.7,0,0,1,1.83,5.39,20.85,20.85,0,0,1-.67,3.92,17.4,17.4,0,0,0-.62,3.73c-.08,4,2.8,6.28,4.52,7.3,4,2.35,9.36,2.51,13.05.38,5.85-3.37,9.65-10.43,11.3-21,.3-1.91.55-3.89.79-5.81.83-6.6,1.68-13.43,4.86-19.45,1.52-2.89,4.2-6.49,8.35-7.27a8.69,8.69,0,0,1,7.61,2.41,13.52,13.52,0,0,1,4.16,11c-.66,6-4.41,11-8,15.72l-.84,1.11a151.5,151.5,0,0,0-15,24.16c-5.58,11.23-6.47,20.08-2.63,26.29,4.28,6.93,13.8,8.84,21,7.14,8.41-2,15.35-7.94,20.46-12.9,10.74-10.43,16.72-20.35,18.28-30.35.66-4.2,2.11-9.65,5.29-11.73a5.22,5.22,0,0,1,4.32-.65c4.16,1.11,5.24,6.35,4.48,10.75-1.89,10.86-8.55,20-15.22,28.51L593.08,167c-6.11,7.74-12.44,15.76-15.32,25.12-2.77,9-1.81,21.56,6.83,28,7.5,5.57,17.65,4.27,23,3,19.44-4.6,34.76-19.41,47.59-32.92,2.14-2.26,4.57-4.82,7.78-6s7.84-.47,9.69,2.85c2,3.67.15,8.27-5.35,12.93l-15.85,13.44c-4.33,3.68-8.3,7.38-9.18,12.21a8.69,8.69,0,0,0,2.83,7.66,5,5,0,0,0,4.78,1.21c1.72-.56,3.22-2.1,4.67-3.59,2.2-2.25,4.46-4.59,7.79-4a5.57,5.57,0,0,1,3.87,2.84,8.24,8.24,0,0,1,.54,6.74c-1.27,3.39-4.26,5.71-6.9,7.75l-.14.11c-15.4,11.93-22.66,23.93-21.55,35.63a50.83,50.83,0,0,0,2.33,10c1.58,5.2,3.21,10.58,2.1,16.07a33.07,33.07,0,0,1-3.74,9,31,31,0,0,0-3.54,8.5c-.61,3.12-.25,6.74,1.09,11.06a47.73,47.73,0,0,0,27,29.6c.73.31,1.48.6,2.24.89,3.4,1.32,6.93,2.68,9.49,5.47a10,10,0,0,1,2.42,8.24,6.34,6.34,0,0,1-3.3,4.72c-4.76,2.46-9.72-1.78-13-4.58-7.34-6.27-15.94-9.82-24.22-10-9.18-.2-18.15,4.08-22.81,10.94-2.63,3.86-4,8.53-5.42,13.05l-.4,1.32c-4.61,15-13.69,33.48-30.82,36-5.16.76-10.55-.07-15.75-.88C554.23,428.08,547,427,541,430.81c-9.62,6.18-8.82,20.46-7.05,32.22,2.68,17.74-.44,29.17-9.26,34-1.47.8-3,1.58-4.45,2.37-10.74,5.69-20.9,11.06-26.24,21.39a87.72,87.72,0,0,0-5.19,13.61c-1.7,5.3-3.45,10.78-6.31,15.71-1.12,1.92-2.93,4.58-5.8,5.45a6.75,6.75,0,0,1-6.28-1.35,11.92,11.92,0,0,1-4.19-9.58,30.7,30.7,0,0,1,2.59-9.29,45.71,45.71,0,0,0,2-5.8,12.34,12.34,0,0,0-1.11-8.91,5.55,5.55,0,0,0-3.51-2.66c-3.55-.82-7,2.12-9.05,5.15-.69,1-1.33,2.12-1.95,3.19-1.49,2.56-3,5.21-5.42,7.16-5.45,4.43-14.63,3.7-20.47-1.62-4.76-4.34-7.59-11.28-8-19.53-.09-1.88,0-3.78,0-5.61a47.74,47.74,0,0,0-.48-9.7c-1.06-5.66-4.23-10.82-7.19-15.11-3.47-5-8.92-11.78-16.2-12.29-7.09-.49-12.88,5-15.71,8.37a44.07,44.07,0,0,0-10.25,25.78c-.16,2.89,0,5.9.07,8.81.25,6.31.51,12.84-2,18.8-1.54,3.65-5,7.18-9,6.29a5.85,5.85,0,0,1-3.83-3,9.57,9.57,0,0,1-.63-7.4,23.76,23.76,0,0,1,3.68-6.38c.72-1,1.46-2,2.09-3a20.64,20.64,0,0,0,2.89-11.16c-.06-2-.55-5.57-3.06-7.59a6.38,6.38,0,0,0-6-1,12.25,12.25,0,0,0-7.7,7.45c-1.45,4.34-1,8.94-.62,13.81.16,1.83.33,3.73.38,5.6a47.43,47.43,0,0,1-11,31.62c-3.83,4.53-8.14,6.45-11.82,5.27s-5.56-5.08-6-8.32a31.7,31.7,0,0,1-.12-6.15c.05-1.17.11-2.38.08-3.55a2.78,2.78,0,0,0-.48-1.85c-.72-.71-1.93.12-4.05,2-.3.26-.58.52-.86.75a9.06,9.06,0,0,1-7.19,1.89,12.27,12.27,0,0,1-8.26-5.09c-2.75-4.06-3.37-9.84-1.75-16.26,1.42-5.64,4.08-10.86,6.66-15.91a86.39,86.39,0,0,0,6-13.51c3.07-10,.61-22.72-8.73-25.92-5.24-1.79-11.7-.18-19.19,4.79-1.15.76-2.29,1.56-3.44,2.36-4.83,3.37-9.83,6.86-15.76,8a8.9,8.9,0,0,1-4.05,0c-4.39-1.21-5-5.68-5.67-10a24.74,24.74,0,0,0-1.37-6c-.9-2.1-2.73-4-5.57-5.77-12-7.5-29.5-5.1-39,5.37-4,4.42-8.67,8.61-13.15,12.66-9.41,8.48-19.13,17.25-23.68,28.68a89.05,89.05,0,0,0-4.47,16.63,212.39,212.39,0,0,0-3.6,39.39v.57c0,6.76,0,14.43-4.4,20A17.11,17.11,0,0,1,143.37,592.6Zm7.36-86.86A4.83,4.83,0,0,1,154,506.9l.61.51-.28.75a82.64,82.64,0,0,1-13.82,23.74c-1.39,1.66-2.86,3.3-4.28,4.88-3.37,3.74-6.86,7.61-9.29,12a33.08,33.08,0,0,0-3.25,23.06c1.74,7.62,6.32,13.89,12.26,16.77,6.59,3.21,15,1.69,19.1-3.46,3.95-4.93,3.93-11.86,3.91-18.56V566a215.28,215.28,0,0,1,3.64-39.81,91.08,91.08,0,0,1,4.59-17c4.75-11.92,14.67-20.87,24.27-29.53,4.44-4,9-8.16,13-12.5,10.39-11.43,28.79-14,41.88-5.76,3.25,2,5.36,4.25,6.45,6.78a26.29,26.29,0,0,1,1.53,6.59c.67,4.56,1.27,7.39,4,8.16a6.85,6.85,0,0,0,3-.05c5.45-1,10.25-4.39,14.89-7.63,1.16-.8,2.32-1.61,3.48-2.38,8.11-5.38,15.23-7.07,21.17-5,10.62,3.63,13.54,17.73,10.15,28.71a88.25,88.25,0,0,1-6.1,13.87c-2.52,4.94-5.13,10.05-6.48,15.44-.85,3.35-1.79,9.7,1.43,14.45a10,10,0,0,0,6.7,4.12A6.86,6.86,0,0,0,312,543l.81-.71c1.89-1.68,4.76-4.21,7.12-1.94a4.79,4.79,0,0,1,1.17,3.43c0,1.25,0,2.5-.09,3.71a30.19,30.19,0,0,0,.1,5.72c.36,2.44,1.75,5.61,4.49,6.49,3.93,1.27,7.89-2.78,9.41-4.57a45.22,45.22,0,0,0,10.52-30.1c-.06-1.8-.22-3.67-.38-5.47-.43-4.89-.87-9.94.73-14.72a14.39,14.39,0,0,1,9.21-8.9,8.57,8.57,0,0,1,8,1.37c2.39,1.92,3.77,5.22,3.91,9.28A22.87,22.87,0,0,1,363.8,519c-.67,1.12-1.45,2.19-2.2,3.22a21.86,21.86,0,0,0-3.36,5.76,7.17,7.17,0,0,0,.46,5.58,3.66,3.66,0,0,0,2.35,1.87c2.59.57,5.2-2.06,6.42-5,2.32-5.5,2.09-11.49,1.84-17.83-.12-3-.24-6-.07-9A46.27,46.27,0,0,1,380,476.49c3.1-3.66,9.51-9.74,17.59-9.16,8.25.58,14.17,7.85,17.9,13.26,3.09,4.49,6.41,9.9,7.55,16a50.23,50.23,0,0,1,.51,10.15c0,1.8-.06,3.66,0,5.47.34,7.65,2.91,14,7.22,18s12.36,5.74,17.52,1.54c2.08-1.69,3.45-4.05,4.9-6.54.64-1.1,1.3-2.24,2-3.32,2.47-3.65,6.77-7.17,11.43-6.08a7.84,7.84,0,0,1,4.92,3.66A14.47,14.47,0,0,1,473,530a47.77,47.77,0,0,1-2.09,6.11,28.17,28.17,0,0,0-2.43,8.59,9.52,9.52,0,0,0,3.33,7.67,4.56,4.56,0,0,0,4.23,1c1.62-.49,3-1.86,4.5-4.42,2.74-4.72,4.45-10.08,6.11-15.27a88.71,88.71,0,0,1,5.34-14c5.66-11,16.61-16.74,27.19-22.34,1.48-.79,3-1.57,4.42-2.37,7.9-4.29,10.63-14.94,8.11-31.64-1.87-12.43-2.65-27.58,8.07-34.46,6.71-4.32,14.73-3.08,22.47-1.88,5,.78,10.25,1.59,15.08.88,16-2.35,24.57-20,29-34.43l.4-1.31c1.42-4.68,2.89-9.52,5.71-13.67,5.17-7.59,14.65-12.17,24.73-11.93,8.8.21,17.91,4,25.64,10.57,3.58,3.06,7.35,5.91,10.49,4.29a4.17,4.17,0,0,0,2.12-3.11,7.76,7.76,0,0,0-1.86-6.32c-2.21-2.4-5.33-3.61-8.65-4.9q-1.15-.44-2.28-.9a50,50,0,0,1-28.32-31c-1.46-4.68-1.83-8.66-1.16-12.16a33,33,0,0,1,3.77-9.13,31.19,31.19,0,0,0,3.52-8.4c1-4.93-.49-9.81-2-15A52.64,52.64,0,0,1,636,280.13c-1.18-12.53,6.36-25.19,22.42-37.64l.14-.1c2.52-2,5.12-4,6.17-6.76a5.91,5.91,0,0,0-.39-4.83,3.35,3.35,0,0,0-2.29-1.74c-2.15-.37-3.84,1.36-5.8,3.37-1.64,1.68-3.34,3.42-5.59,4.15a7.1,7.1,0,0,1-7-1.65,10.87,10.87,0,0,1-3.56-9.76c1-5.56,5.28-9.57,9.94-13.53l15.85-13.44c2.66-2.25,6.82-6.56,4.84-10.11-1.25-2.24-4.58-2.69-6.94-1.83-2.71,1-4.85,3.25-6.93,5.43-13.05,13.75-28.66,28.82-48.7,33.57-5.77,1.36-16.67,2.74-24.9-3.38-9.52-7.07-10.64-20.74-7.65-30.45s9.47-18,15.71-25.86l1.29-1.63c6.48-8.25,13-17.16,14.76-27.5.5-2.86.15-7.39-2.83-8.19a3,3,0,0,0-2.51.36c-1.91,1.25-3.47,5-4.29,10.19-1.64,10.5-7.83,20.84-18.94,31.62-5.32,5.16-12.57,11.36-21.51,13.48-7.73,1.83-18.36,0-23.43-8.16-4.33-7-3.51-16.33,2.53-28.48a153.66,153.66,0,0,1,15.2-24.52l.85-1.11c3.44-4.51,7-9.18,7.59-14.59a11.4,11.4,0,0,0-3.45-9.14,6.5,6.5,0,0,0-5.66-1.84c-3.44.65-5.72,4.1-6.78,6.1-3,5.65-3.81,12.28-4.61,18.68-.24,1.94-.49,3.93-.8,5.88-1.76,11.25-5.94,18.85-12.4,22.58a15.65,15.65,0,0,1-15.32-.39c-3.65-2.15-5.71-5.54-5.64-9.28a19.9,19.9,0,0,1,.68-4.21,18.64,18.64,0,0,0,.61-3.5,5.45,5.45,0,0,0-1.23-3.77,2.38,2.38,0,0,0-1.65-.83c-2.45-.12-3.15,3.13-3.84,7.37-.09.59-.19,1.17-.29,1.72a14.15,14.15,0,1,1-24.89-11.81,27.28,27.28,0,0,1,5.11-4.35,35.5,35.5,0,0,0,3.65-2.86c2.44-2.3,4.07-6,2.44-8.6a4.38,4.38,0,0,0-3-2c-2.36-.49-5.64.35-8.16,2.08-7.42,5.1-11.54,13.69-15.53,22-1,2.14-2.09,4.36-3.2,6.48-6.47,12.43-16,19.29-26.75,19.32h0c-3.74,0-6.31-3.93-6.36-7.6a21.43,21.43,0,0,1,1.29-6.6c.28-.88.56-1.8.77-2.69,1.12-4.59.05-10.41-4.12-12.15-3.25-1.36-7,.4-9.05,2.84s-3.11,5.67-3.5,10.13l0,.42c-.23,2.71-.51,6.08-3,8-2.79,2.09-6.74,1-8.95-1.26s-3-5.27-3.6-8c-.89-4.21-1.37-8.55-1.83-12.75-.69-6.27-1.4-12.75-3.51-18.72-1.23-3.5-2.68-5.89-4.57-7.52s-5-2.77-7.63-1.66c-4.63,2-4.82,8.83-4.17,14.26l1.52,12.57a20.62,20.62,0,0,1-.11,8c-.73,2.64-2.89,5.48-6.06,5.88a10.83,10.83,0,0,1-3.57-.31,9.55,9.55,0,0,0-2.69-.31c-3.92.36-5.48,5.83-6,8.17l-.05.25c-.84,4-1.88,9-6,11a7.55,7.55,0,0,1-6,.17,11.27,11.27,0,0,1-6.2-5.9c-1.81-4.15-1.44-8.69-1.08-13.09l.05-.53c1.11-13.67.83-27.66.44-40.81-.14-4.83-.3-10.3-2.55-14.93-2-4.08-6.52-7.86-11.31-7.18s-8.1,5.79-8.57,10.22c-.44,4.2.77,8.79,3.81,14.46.8,1.48,1.67,3,2.51,4.4a65,65,0,0,1,5,9.73,33.57,33.57,0,0,1-2.29,28.44c-4.86,8.42-14.23,17.15-24.19,17.67-5,.26-8.48-3.85-11.57-7.47l-.44-.51C283,150.1,278.55,147,275.19,149a4.49,4.49,0,0,0-2.17,3c-.73,3,.69,7.06,2.42,9.71l.69,1.05c2.94,4.45,6.26,9.49,4.18,14.63a4.55,4.55,0,0,1-3.79,3.1,5.21,5.21,0,0,1-2.93-1,37.4,37.4,0,0,1-12.88-14c-.56-1.06-1.08-2.17-1.58-3.24-1.35-2.87-2.63-5.59-4.72-7.68a9.11,9.11,0,0,0-6.33-2.6,5,5,0,0,0-3.61,1.54c-3.2,3.55.59,9.52,3.92,12.66a76.87,76.87,0,0,0,14.42,10.69l.47.27a16.6,16.6,0,0,1,5.14,3.91c1.58,2,2.26,5.24.51,7.49-2.73,3.52-8,1.63-11.62-1.06-13-9.58-27.6-21.15-35.81-37.28-1.34-2.63-2.5-5.38-3.63-8-2-4.69-4.05-9.55-7.05-13.67-1.41-1.92-4.47-4.83-7.06-3.52-2.07,1-2,3.5-1.77,7.41.24,3.41.52,7.28-2.15,9.65-2,1.79-5.38,2-8.17.46a17.75,17.75,0,0,1-5.52-5.46A171.31,171.31,0,0,1,173,116l-1.14-2.19c-2.38-4.56-4.84-9.27-8.41-12.93-4.48-4.59-10.51-6.68-15.35-5.31a8,8,0,0,0-4.88,3.51c-2,3.51,0,8.15,1.4,10.61,5.54,9.86,14.72,16.38,24.44,23.29,8.22,5.83,16.71,11.86,22.7,20.07,3.12,4.29,8.36,11.47,3.83,16.12a10.47,10.47,0,0,1-7.68,3.08h0c-4.58,0-9.92-2.45-13.61-6.24a67.68,67.68,0,0,1-5.43-6.6c-2.83-3.75-5.5-7.28-9.24-9.67-1.39-.89-3.45-1.85-5.29-1.34a4,4,0,0,0-2.56,2.48,7.14,7.14,0,0,0,.48,6.07c1.76,2.93,5,4.73,8.21,6.47l.94.52a52.78,52.78,0,0,1,12.74,9.36,39.67,39.67,0,0,1,10.95,28.12,42.78,42.78,0,0,1-11.42,28,90.5,90.5,0,0,1-11.15,9.64c-6.62,5.12-12.88,10-16.1,17.18-5.83,13,1.36,28,6.17,35.83,2.15,3.48,4.56,6.91,6.9,10.23,5.08,7.24,10.34,14.72,13.31,23.24a29,29,0,0,1,1.83,12.8c-1.37,12.23-13.07,20.26-22.67,23.42-6.15,2-12.62,2.95-18.87,3.84-4.56.65-9.26,1.33-13.77,2.42-3.46.83-7.69,2.56-8.23,6-.77,5,6.32,7.55,9.46,8.45a1.07,1.07,0,0,1,1.08.14,1.26,1.26,0,0,1,.21.2l1.26.33-.74.78a7.21,7.21,0,0,1,1.06,4.68,12.3,12.3,0,0,1-5.06,8.42,33.77,33.77,0,0,1-7.12,3.54,36.7,36.7,0,0,0-6,2.81A10.9,10.9,0,0,0,100.5,410a5.24,5.24,0,0,0,.35,3.4c6.43-1.66,11.7-6.38,16.8-11,1.65-1.48,3.36-3,5.09-4.41a69,69,0,0,1,46.07-15.28c3.76.16,8.6.68,12.67,3.21,3.58,2.23,6.87,6.7,6.14,11.66-.5,3.4-2.66,6.06-4.75,8.63l-.47.58c-4.38,5.42-7.73,13-4,18.09,3.19,4.37,9.72,4.53,16.29,4.06,6-.43,14.33-.31,18,5.69,1.95,3.18,2,7.66.2,11.68-1.63,3.59-4.38,6.42-7.11,9-11,10.16-24.05,17.89-36.69,25.36-9.1,5.37-18.51,10.93-27,17.35-3.5,2.63-7.49,6.21-7.36,10.65a3.85,3.85,0,0,0,.85,2.52c1.89,2,5.73-.24,7.7-1.89C146,506.93,148.58,505.74,150.73,505.74Z" transform="translate(-64.03 -19.4)"/><path class="cls-4" d="M275.18,587.08a6.59,6.59,0,0,1-2.12-.35c-3.33-1.14-5-4.66-5.12-7.65s.84-5.79,2-8.62h0l1.51-3.9c4-10.5,9.07-23.57,16.6-30.51l1.18-1.09.62,1.48c1.55,3.69.73,9.45.06,14.07-.18,1.3-.36,2.53-.46,3.57-.57,5.67-1.39,11.38-2.43,17-.72,3.82-1.6,7.82-3.86,11.18C281.42,584.78,278.39,587.08,275.18,587.08ZM272,571.28h0c-1,2.6-1.93,5.14-1.8,7.69.11,2.15,1.29,4.83,3.6,5.62,2.69.92,5.79-1.12,7.46-3.61,2-3,2.84-6.76,3.51-10.34,1-5.53,1.84-11.17,2.4-16.78.11-1.09.29-2.35.48-3.67.52-3.63,1.15-8,.58-11.17-6.44,6.87-11,18.71-14.71,28.35C273,568.74,272.48,570.05,272,571.28Z" transform="translate(-64.03 -19.4)"/><path class="cls-4" d="M624.46,546.77a10.21,10.21,0,0,1-6.9-2.94,19.63,19.63,0,0,1-4.5-7.41h0c-2-5.34-2.87-11-3.71-16.44s-1.7-11-3.67-16.2c-1.11-2.91-3.18-5.37-5.19-7.74a29.34,29.34,0,0,1-5.1-7.5l-.84-2.05,2.15.53c17.18,4.19,31.13,26.4,35.55,40.84,1,3.16,1.86,6.89,1.11,10.63-.68,3.43-3.2,7.28-7.28,8.12A8,8,0,0,1,624.46,546.77Zm-9.29-11.15a17,17,0,0,0,3.94,6.57,7.6,7.6,0,0,0,6.52,2.21c2.61-.54,4.88-3.15,5.52-6.35s-.17-6.64-1.06-9.53c-4-13.21-16.26-33.15-31.43-38.56a41.75,41.75,0,0,0,3.56,4.62c2.12,2.52,4.32,5.13,5.57,8.4,2.05,5.4,2.94,11.12,3.79,16.65.82,5.35,1.67,10.88,3.59,16Z" transform="translate(-64.03 -19.4)"/><path class="cls-4" d="M84.88,414.65a4.57,4.57,0,0,1-2.37-.64c-3.08-1.83-2.76-6.29-.85-9.75a29.82,29.82,0,0,1,11-11.25l.09.16,2-.06a37,37,0,0,1-2.93,15.53,11.5,11.5,0,0,1-3.2,4.67A6.15,6.15,0,0,1,84.88,414.65Zm7.57-18.87a27.59,27.59,0,0,0-8.81,9.57c-1.08,1.95-2,5.5,0,6.72a3.32,3.32,0,0,0,3.54-.53,9.39,9.39,0,0,0,2.52-3.79A34.69,34.69,0,0,0,92.45,395.78Z" transform="translate(-64.03 -19.4)"/><path class="cls-4" d="M123.64,93.65l-.07-.16a27.46,27.46,0,0,1-9.7-6.49c-2.1-2.18-3.15-4.25-3.22-6.32a5.62,5.62,0,0,1,1.74-4.19,4.13,4.13,0,0,1,3.28-1.2c2.75.25,4.16,2.91,5.08,5.19l5,12.32ZM115.3,77.52a2,2,0,0,0-1.36.61,3.39,3.39,0,0,0-1,2.48c0,1.48.9,3.06,2.6,4.83a25,25,0,0,0,6.86,5l-3.7-9.16c-1-2.51-2-3.68-3.2-3.79Z" transform="translate(-64.03 -19.4)"/><path class="cls-4" d="M671.92,300l1.34-3.91c3.65-10.64,11.37-22.3,22.93-34.67h0c3.17-3.38,6.72-6.8,11.19-8.9,5-2.32,10.37-2.43,14.45-.29,4.89,2.56,7.37,8.45,5.54,13.12-2,5.17-7.84,7.15-12.51,8.74a148,148,0,0,0-24.23,10.74c-4.49,2.48-7.89,5.58-11.49,8.85-1.3,1.19-2.66,2.42-4.08,3.64Zm43.35-47.05a16.42,16.42,0,0,0-6.94,1.62c-4.12,1.93-7.48,5.17-10.49,8.39h0c-9.78,10.47-16.75,20.38-20.75,29.54l.54-.49c3.69-3.36,7.19-6.54,11.9-9.16a152.56,152.56,0,0,1,24.6-10.9c4.23-1.44,9.5-3.23,11.14-7.42,1.4-3.57-.65-8.29-4.48-10.3A11.94,11.94,0,0,0,715.27,252.94Z" transform="translate(-64.03 -19.4)"/><path class="cls-4" d="M128.56,235a7.64,7.64,0,1,1,7.63-7.63A7.64,7.64,0,0,1,128.56,235Zm0-13a5.38,5.38,0,1,0,5.38,5.38A5.38,5.38,0,0,0,128.56,222Z" transform="translate(-64.03 -19.4)"/><path class="cls-4" d="M112.85,291.32a7.63,7.63,0,1,1,7.63-7.63A7.64,7.64,0,0,1,112.85,291.32Zm0-13a5.38,5.38,0,1,0,5.37,5.38A5.38,5.38,0,0,0,112.85,278.31Z" transform="translate(-64.03 -19.4)"/><path class="cls-4" d="M295.21,65.87A6.82,6.82,0,1,1,302,59.05,6.83,6.83,0,0,1,295.21,65.87Zm0-11.38a4.56,4.56,0,1,0,4.56,4.56A4.57,4.57,0,0,0,295.21,54.49Z" transform="translate(-64.03 -19.4)"/><path class="cls-4" d="M445.06,98.39a6.55,6.55,0,1,1,6.55-6.55A6.56,6.56,0,0,1,445.06,98.39Zm0-10.84a4.29,4.29,0,1,0,4.29,4.29A4.29,4.29,0,0,0,445.06,87.55Z" transform="translate(-64.03 -19.4)"/><path class="cls-4" d="M679.18,240.38a7.09,7.09,0,1,1,7.09-7.09A7.1,7.1,0,0,1,679.18,240.38Zm0-11.93a4.84,4.84,0,1,0,4.84,4.84A4.84,4.84,0,0,0,679.18,228.45Z" transform="translate(-64.03 -19.4)"/><path class="cls-4" d="M717.12,382.37a6.55,6.55,0,1,1,6.55-6.55A6.56,6.56,0,0,1,717.12,382.37Zm0-10.84a4.29,4.29,0,1,0,4.29,4.29A4.29,4.29,0,0,0,717.12,371.53Z" transform="translate(-64.03 -19.4)"/><path class="cls-4" d="M664.82,438.19a7.91,7.91,0,1,1,7.9-7.9A7.91,7.91,0,0,1,664.82,438.19Zm0-13.55a5.65,5.65,0,1,0,5.65,5.65A5.66,5.66,0,0,0,664.82,424.64Z" transform="translate(-64.03 -19.4)"/><path class="cls-4" d="M569.44,509.73a9,9,0,1,1,9-9A9,9,0,0,1,569.44,509.73Zm0-15.72a6.73,6.73,0,1,0,6.73,6.73A6.74,6.74,0,0,0,569.44,494Z" transform="translate(-64.03 -19.4)"/><path class="cls-4" d="M71.93,436a7.9,7.9,0,1,1,7.9-7.9A7.9,7.9,0,0,1,71.93,436Zm0-13.55a5.65,5.65,0,1,0,5.64,5.65A5.66,5.66,0,0,0,71.93,422.47Z" transform="translate(-64.03 -19.4)"/><path class="cls-5" d="M577.94,339.55c2.41-2.47,21.65,20.59,22.51,22,29,46.54-4.46,97.89-46,128.87-19.62,14.62-42.24,26.2-66.13,34.74-31.24,11.18-64.48,17.29-98,20.35,0,0,1.28-10.37,26.51-25.18-11.47,2-22.88,4.16-34.23,6.55-8.78,1.84-17.54,3.79-26.17,6.11-4.95,1.34-17.74,3.54-20.39,8-4.14,6.93,20.65,20.46,25.64,22.83a121.14,121.14,0,0,0,25.16,8.48,168.65,168.65,0,0,0,17.1,2.93c5.7.69,14.06-.27,19.3,1.44A75.51,75.51,0,0,1,392,554c1.07,1.3,12.31-.49,14.31-.61,7.39-.46,14.75-1,22.08-2,57.35-7.28,114.34-31.16,154.12-68.34,20.87-19.51,36.63-43.52,40.56-70.2A94.32,94.32,0,0,0,622,379.92s-5.13-25.19-34.63-50Z" transform="translate(-64.03 -19.4)"/><g class="cls-6"><path class="cls-7" d="M416.08,574.42c-5.15-.22-10.24-.65-15.33-1.34a116,116,0,0,1-25.88-6.57c-8.25-3.18-16.18-7.43-22.27-13.27a36.43,36.43,0,0,1-3.94-4.42,13.88,13.88,0,0,1-2.53-4.78,11.83,11.83,0,0,1,1.61-8.84c-4.86,1.34-9.82,3.15-11.35,5.72-4.15,6.93,20.65,20.46,25.64,22.83a121.06,121.06,0,0,0,25.15,8.48,169.32,169.32,0,0,0,17.11,2.93c5.69.69,14.06-.27,19.3,1.44a47.16,47.16,0,0,1-5-2.08Z" transform="translate(-64.03 -19.4)"/></g><g class="cls-6"><path class="cls-7" d="M621.33,419.24c-1.39,3.95-2.71,7.92-4.34,11.8a86.94,86.94,0,0,1-5.87,11,171.13,171.13,0,0,1-13.58,19.39,220.93,220.93,0,0,1-35.77,35.15A207.65,207.65,0,0,1,541,511.05c-7.87,4.77-15.79,9.48-24,13.74a226.21,226.21,0,0,1-24.4,10.53c-4.45,1.68-8.92,3.37-13.24,5.29,39.12-11.84,75.6-31.4,103.57-57.54,20.86-19.49,36.6-43.49,40.54-70.15C622.78,415,622.06,417.13,621.33,419.24Z" transform="translate(-64.03 -19.4)"/></g><path class="cls-4" d="M656.4,207.51a24.71,24.71,0,0,0-7-19.51h0a24.67,24.67,0,0,0-19.51-7,28.36,28.36,0,0,0-12.34,4l.32-3.28a12.3,12.3,0,0,0-.54-4.91,32.9,32.9,0,0,0,5.78-9.29A25.4,25.4,0,0,0,602.59,132a34.93,34.93,0,0,0-22.12,4.57c-15.25,8.81-21.46,26.72-13.83,39.92.08.15.18.29.27.44a12.26,12.26,0,0,0-2,2.85c-.75-.16-1.52-.3-2.3-.44-2.15-.39-5-.87-7.92-1.35-11.68-1.92-13.1-2-13.63-2-15.86-.8-40,3.74-56,19.09a47.8,47.8,0,0,0-10,13.56,62.33,62.33,0,0,0-80.63-9.13l-16.49.65A12.41,12.41,0,0,0,366,211.45l-.92,10.85a43.81,43.81,0,0,0-15.71-10.48c-21.75-8.45-44.87,1.62-47.36,2.77A91,91,0,0,0,275.88,232a36.66,36.66,0,0,0-6.51-11.15C259.68,209.53,244,205.21,222.71,208L168,215.31a12.39,12.39,0,0,0-10.69,10.84L143.19,345.43a12.42,12.42,0,0,0,12.32,13.87,12.69,12.69,0,0,0,2.37-.23l30.78-6a12.42,12.42,0,0,0,9.94-10.54l2.94-22.08a131.68,131.68,0,0,0,26.62-5.85c11.05-3.74,20.38-8.82,27.87-15.1a43.56,43.56,0,0,0,10.18,16.94c13.39,13.86,32.37,15.48,38.58,15.62a56.38,56.38,0,0,0-27.86,19.53l-4.11-12.26A12.41,12.41,0,0,0,259,331.05l-16.87,2.81a12.44,12.44,0,0,0-9.1,6.77l-35.36,72a12.41,12.41,0,0,0,13.24,17.7l17.89-3.07a12.43,12.43,0,0,0,9-6.68l3.36-6.73.68-.1a12.3,12.3,0,0,0-2.22,7.81l.4,7a12.4,12.4,0,0,0,12.39,11.7,12.16,12.16,0,0,0,1.9-.15l5.71-.88-6,51.9A12.4,12.4,0,0,0,266.32,505a12.56,12.56,0,0,0,2.28-.21L284,501.89a12.42,12.42,0,0,0,9.25-7.57,16,16,0,0,0,15.71-1.26c.11.1.21.21.32.3a12.38,12.38,0,0,0,10.81,3.09l16.27-3.16a12.41,12.41,0,0,0,9.45-8.43,24.74,24.74,0,0,0,5.51,2.69,37.77,37.77,0,0,0,13.25,2.27,43.67,43.67,0,0,0,18.08-4,31.18,31.18,0,0,0,11-6.82c.15.17.28.34.44.5a12.43,12.43,0,0,0,8.76,3.62,11.64,11.64,0,0,0,1.45-.09l15.37-1.8a12.42,12.42,0,0,0,10.92-11.33l.1-1.27.63.93a12.42,12.42,0,0,0,14.68,7.6l12.95-3.32a12.51,12.51,0,0,0,2.13-.76l.09,0c.32.09.65.17,1,.24l.12,0a12.43,12.43,0,0,0,2.29.22,12.85,12.85,0,0,0,2.13-.18l16.27-2.82.13,0,13.56-2.35c6.95-1,18.54-5.66,27.11-16.6a37.11,37.11,0,0,0,9,5.82,38.43,38.43,0,0,0,16.18,3.48c17.58,0,35.77-11.09,44-28.81,11.57-25,5.63-48.15-14.79-57.6h0a36.75,36.75,0,0,0-5.22-1.92l.13-.05c8.26-3.17,22-13.4,24.68-33.24l5.4-36.67a12.41,12.41,0,0,0-14.12-14.08l-17,2.56a12.4,12.4,0,0,0-8.82,5.93A12.38,12.38,0,0,0,553,294l-16,2.26a12.39,12.39,0,0,0-3.49,1.05l-.23,0-48.2,7.23a12.41,12.41,0,0,0-10.55,11.73L474,330.1A12.4,12.4,0,0,0,486.79,343l-2.08,28.07-6.13,1-17.81-50.61,8-7.91a12.38,12.38,0,0,0,1.49-15.89c1.3-1.13,2.55-2.3,3.74-3.53a123.14,123.14,0,0,0,29.62,3.7,93.36,93.36,0,0,0,32.79-5.58,73.16,73.16,0,0,0,20.24-11.52,12.24,12.24,0,0,0,1.16,1.34,12.51,12.51,0,0,0,10.29,3.43l30.49-4a12.42,12.42,0,0,0,10.75-11.12l.08-.91c.3.23.57.48.88.7a23.63,23.63,0,0,0,14,4.48A27.71,27.71,0,0,0,646.53,263h0c8.06-11.11,7-25.89-1.9-34.52a30.76,30.76,0,0,0,3.2-2.78A29.14,29.14,0,0,0,656.4,207.51Z" transform="translate(-64.03 -19.4)"/><path class="cls-4" d="M617.8,227.16a18.57,18.57,0,0,0-3.28-1.89,25.21,25.21,0,0,0,8.44-5.6c9.08-9.08,9.81-23.13,1.62-31.32h0c-8.19-8.19-22.25-7.47-31.33,1.61a26.71,26.71,0,0,0-3,3.55l1.44-15a7.86,7.86,0,0,0-1.44-5.35,28.92,28.92,0,0,0,7-10.11,21.69,21.69,0,0,0-.92-19.1c-6.38-11.05-22.22-13.9-35.32-6.34A30.41,30.41,0,0,0,548,152.25a21.71,21.71,0,0,0,.92,19.11,19.79,19.79,0,0,0,2.82,3.75,7.9,7.9,0,0,0-5.31,6.64l-.09.86a20.27,20.27,0,0,0-6.18-1.71c-2.13-.38-5-.86-7.85-1.34-4.27-.7-11.65-1.89-13.12-2-15-.75-37.75,3.48-52.7,17.84a41.72,41.72,0,0,0-11.63,19.21,57.77,57.77,0,0,0-47.08-24.28,57.17,57.17,0,0,0-33.53,10.7l-17.8.7a7.88,7.88,0,0,0-7.55,7.22l-1.93,22.65c-5-8.81-12-15-20.84-18.45-20.36-7.92-43,2.26-43.86,2.67-13.92,6.27-23.6,14.3-30.35,22.41A34.55,34.55,0,0,0,244.27,221c-8.63-10.1-23-13.89-42.64-11.28l-54.72,7.27a7.9,7.9,0,0,0-6.8,6.9L126,343.12a7.9,7.9,0,0,0,7.84,8.83,7.73,7.73,0,0,0,1.51-.15l30.78-6a7.9,7.9,0,0,0,6.32-6.71l3.42-25.6a129.47,129.47,0,0,0,29.18-6c13.41-4.54,24.11-11.13,31.88-19.52a40.58,40.58,0,0,0,10.85,22.51c13.17,13.62,33,14.25,36.53,14.25h.52l.43,0c35.59-2.91,51.6-20.37,56-26.16L339.16,323a8.14,8.14,0,0,0,.35,3l-.22.14-.53.06-16.47,2.61a7.89,7.89,0,0,0-6.61,6.89l0,.38c-5.75-3.47-15.05-6.68-27.77-3.47A51.15,51.15,0,0,0,254,359.17l-7.12-21.23a7.9,7.9,0,0,0-8.79-5.28l-16.87,2.81a7.93,7.93,0,0,0-5.79,4.31l-35.36,72a7.9,7.9,0,0,0,7.09,11.38,8.75,8.75,0,0,0,1.34-.11l17.89-3.08a7.87,7.87,0,0,0,5.72-4.25l4.41-8.81,16.19-2.52,1.3,4.55a4.34,4.34,0,0,0,.16.47l-5.06.8a7.91,7.91,0,0,0-6.64,8.25l.4,7a7.91,7.91,0,0,0,7.89,7.45,8.31,8.31,0,0,0,1.21-.09l11.57-1.8-6.72,57.79a7.91,7.91,0,0,0,9.29,8.68l15.37-2.86a7.91,7.91,0,0,0,6.4-6.88c.18-1.65.36-3.22.53-4.71a12.37,12.37,0,0,0,5,4.35c4.08,1.91,10.13,1.73,14.88-4.23a7.88,7.88,0,0,0,9.21,6L313.79,486a7.9,7.9,0,0,0,6.34-6.88l.72-6.52a20.45,20.45,0,0,0,10.26,7.84,32.67,32.67,0,0,0,11.7,2,39.22,39.22,0,0,0,16.48-3.71c3.84-1.24,7.63-3.82,11.56-7.85.84-.86,1.63-1.75,2.39-2.66a7.88,7.88,0,0,0,7.87,7.51,7.26,7.26,0,0,0,.93-.06l15.36-1.8a7.9,7.9,0,0,0,7-7.21l1.13-14,8.17,11.95a7.89,7.89,0,0,0,9.49,5.29l12.95-3.32a7.73,7.73,0,0,0,2.87-1.42h0a6.79,6.79,0,0,0,1.06.49l.18.07a7.75,7.75,0,0,0,1.17.31l.14,0a7.45,7.45,0,0,0,1.25.11h0a7.78,7.78,0,0,0,1.35-.12h0l.29-.05,16-2.76.14,0,13.67-2.37a40.9,40.9,0,0,0,27.19-19.26,31.43,31.43,0,0,0,11.47,8.84,34,34,0,0,0,14.39,3.09c15.85,0,32.32-10.11,39.77-26.22,10.44-22.55,5.38-43.29-12.58-51.6-8.92-4.13-20.06-3.86-30.56.72a47.18,47.18,0,0,0-9.54,5.57l.09-8.06a7.89,7.89,0,0,0-9.14-7.9l-6,1,3.4-37.64,4.14-.69L505.65,341c-.6,6.82,1.85,21.06,15.32,26.24a32.4,32.4,0,0,0,11.89,2.11,39.29,39.29,0,0,0,16.77-3.85c3.19-1.27,19.07-8.64,21.87-29.66l5.41-36.69a7.91,7.91,0,0,0-9-9l-17,2.56a7.91,7.91,0,0,0-6.67,6.95L541,329.42c-.1.89-.17,1.82-.24,2.77a18.84,18.84,0,0,1-.66,4.66,5,5,0,0,1-2.21,2.35,8.51,8.51,0,0,1,0-2q1.09-11.06,2.11-22.12l1-11a7.88,7.88,0,0,0-9-8.56l-16,2.26a7.8,7.8,0,0,0-2.79,1,8.91,8.91,0,0,0-.89.08l-48.2,7.23a7.91,7.91,0,0,0-6.71,7.47l-.61,13.86a7.9,7.9,0,0,0,9.2,8.13l4-.68-2.55,34.48a7.89,7.89,0,0,0,.27,2.7l-14.23,2.27a7.59,7.59,0,0,0-.44-2.39L434,317.75c0-.1-.09-.19-.13-.29L444,307.51a7.86,7.86,0,0,0-2.38-12.83,58,58,0,0,0,9.34-8.44,115.68,115.68,0,0,0,31,4.27,88.94,88.94,0,0,0,31.29-5.32c1.42-.51,14.33-5.37,23.75-15.38a7.89,7.89,0,0,0,7.86,8.46,7.13,7.13,0,0,0,1-.07l30.5-4a7.9,7.9,0,0,0,6.83-7.07l1.24-12.82a19,19,0,0,0,18.3,13,21.3,21.3,0,0,0,4.79-.56,23.74,23.74,0,0,0,13.69-9.28C628.51,247.44,627,233.82,617.8,227.16Z" transform="translate(-64.03 -19.4)"/><path class="cls-8" d="M202.66,217.52l-54.72,7.27L133.83,344.07l30.78-6L168.89,306s65-.43,74-46.6C242.85,259.42,257.38,210.26,202.66,217.52Zm10.26,38.91c0,21.8-41.47,23.51-41.47,23.51l3.85-34.63C218.05,232.49,212.92,256.43,212.92,256.43Z" transform="translate(-64.03 -19.4)"/><path class="cls-8" d="M342.46,240.47c-15.39-36.48-57-17.39-57-17.39-40.47,18.24-41.19,52.59-41.19,52.59-2.56,42.32,40.33,41.18,40.33,41.18,38.34-3.13,51.16-24.22,51.16-24.22L318,277.38c-30.71,30.56-44.75,2.7-44.75,2.7l71-11.68A81.64,81.64,0,0,0,342.46,240.47Zm-68,22.37a31.32,31.32,0,0,1,20.38-19.1c19-4.27,22.38,11.83,22.38,11.83Z" transform="translate(-64.03 -19.4)"/><path class="cls-8" d="M457.6,248a49.9,49.9,0,0,1-79.22,40.22l-1.71,30.32L347,323.69l9.69-114,20.25-.8A49.9,49.9,0,0,1,457.6,248Z" transform="translate(-64.03 -19.4)"/><path class="cls-9" d="M407.61,206a41.34,41.34,0,0,1,23.69,6.83c1.62,1,2.17,2.08,1.48,4-9.85,27.3-28.38,45.76-55.9,55.16-1.78.61-2.62,0-3.57-1.4-16.59-24.75-1.59-59,28.05-64.1A34.51,34.51,0,0,1,407.61,206Z" transform="translate(-64.03 -19.4)"/><path class="cls-4" d="M443.55,226.33a31.75,31.75,0,0,1,6.3,17.19c1.21,17.87-5.82,31.61-21.34,40.71-16.19,9.5-38.5,5.75-50.93-8.3-1.49-1.67-.47-1.93.91-2.35,10.89-3.3,22.07-5.42,33.12-8.07,7.4-1.77,14.74-3.85,20.9-8.54,9.56-7.27,13.14-17,11.31-28.84Z" transform="translate(-64.03 -19.4)"/><ellipse class="cls-8" cx="572.61" cy="157.67" rx="19.52" ry="15.25" transform="translate(-66.15 288.03) rotate(-30)"/><ellipse class="cls-8" cx="608.1" cy="204.84" rx="15.39" ry="13.11" transform="translate(-30.76 470.59) rotate(-45)"/><ellipse class="cls-8" cx="604.53" cy="245.45" rx="14.68" ry="12.68" transform="translate(-13.07 571.39) rotate(-54.06)"/><polygon class="cls-8" points="511.29 247 480.8 251 490.2 163.21 519.84 158.37 511.29 247"/><path class="cls-8" d="M531.14,212.82l11.12-23.37c.13-.29-22-3.87-23.52-3.94-24.14-1.2-57.76,11.68-57.49,40.38.07,7.28,2.17,12.47,8.35,16.56,6.38,4.22,14.08,4.94,21.53,4.68,4.68-.17,16.27-3.71,18.22,2.87,2.34,7.88-11.62,9-16.56,9.27a67.74,67.74,0,0,1-16.46-.92c-1.19-.23-13.88-3.15-13.2-4.7l-10.8,24.8s30.36,9.83,58.15-.65c0,0,26.5-9.4,28.43-29.07.8-8.19-1-17-8.27-21.78-6.79-4.48-15.63-4.39-23.44-4-5.49.28-15.83,1.17-15.32-7.17.55-8.9,17.83-8.76,23.37-7.83C517.06,208.29,531.18,212.74,531.14,212.82Z" transform="translate(-64.03 -19.4)"/><polygon class="cls-8" points="449.47 287.33 448.47 300.39 431.38 303.26 427.38 347.58 411.32 350.6 414.62 306.08 400.67 308.42 401.28 294.57 449.47 287.33"/><path class="cls-8" d="M569.08,298l-5.42,36.75c-2.42,18.38-17.17,23.5-17.17,23.5-12.66,6-22.59,1.66-22.59,1.66-11.6-4.38-10.4-18.23-10.4-18.23l3.62-36,16-2.26c-1.05,11-2,22-3.13,33-.49,4.87,1.11,11.43,7.35,10.94a12.18,12.18,0,0,0,10-7.42c1.25-2.91,1.15-6.55,1.49-9.68l2.38-21.6.89-8.14Z" transform="translate(-64.03 -19.4)"/><polygon class="cls-8" points="374.37 282.52 359.1 297.58 349.66 298.58 360.31 284.12 374.37 282.52"/><path class="cls-8" d="M426.54,320.39l-13.25,1-33.14,63.67,17.27-2.41,5.15-11.14,23.65-4,2.73,9.71,16.67-2.62ZM409.2,357.15l8.79-19,4.9,17.49Z" transform="translate(-64.03 -19.4)"/><polygon class="cls-8" points="329.4 306.36 328.38 320.47 311.91 321.68 307.31 366.61 291.24 369.62 295.64 324.49 279.17 327.5 279.77 313.24 329.4 306.36"/><path class="cls-8" d="M239.37,340.47l-16.87,2.82-35.36,71.95L205,412.17l6.22-12.45,27.11-4.22,3.22,11.25,19.08-2.81Zm-20.08,43.58L228.52,362l5.38,19.24Z" transform="translate(-64.03 -19.4)"/><polygon class="cls-8" points="268.53 373.69 252.66 376.1 259.49 317.26 275.96 314.65 268.53 373.69"/><path class="cls-8" d="M380.2,407.8q-2.15,17.32-4.28,34.66a39.64,39.64,0,0,1-10.74,23c-2.34,2.41-5.41,5-8.74,6-12.65,6-22.59,1.66-22.59,1.66C322.06,469.26,323,450.73,323,450.73l3.77-34.49,16.12-2.41c-1.05,11-1.86,24.78-3,35.79-.48,4.87,1.52,10.18,7.77,9.69,4.37-.26,8.49-3.92,9.94-8,3-8.43,5.72-38.4,6-41.12Z" transform="translate(-64.03 -19.4)"/><path class="cls-8" d="M319.05,417.14l-6.78,61.15L296,481.45l3.9-32.73c-3.5,5.77-7.18,11.43-10.71,17.19-2.13,3.47-3.91,7.13-5.94,10.66-1.3,2.25-3.59,5-6.5,3.68-2.14-1-2.89-3.82-3.8-5.8-1.2-2.62-2.59-5.22-3.84-7.84l-3.77-7.89c-.36-.74-1.83-2.77-1.73-3.62L260,486.88l-15.37,2.86,7.23-62.21,15.06-1.8,14.46,31.93,22-38.26Z" transform="translate(-64.03 -19.4)"/><polygon class="cls-8" points="377.48 379.37 370.1 439.61 357.14 442.93 357.17 442.25 357.14 442.32 335.37 410.45 332.44 446.7 317.07 448.5 324.01 387.95 337.41 385.24 358.66 413.83 360.3 382.23 377.48 379.37"/><path class="cls-8" d="M551.16,383c-14-6.5-35.52,1.88-44,20.18s-5,33.72,9,40.22,35.21-1,43.68-19.28S565.2,389.45,551.16,383Zm-6,38.23c-5.51,8.17-15.12,11.33-21.46,7.06s-7-14.37-1.49-22.54,15.11-11.33,21.45-7.06S550.63,413,545.12,421.18Z" transform="translate(-64.03 -19.4)"/><polygon class="cls-8" points="395.05 436.14 395.05 436.15 378.79 438.96 395.05 436.14"/><path class="cls-8" d="M496.49,401.22c-3.54-5.41-9.6-8-15.94-8.08-5.66,0-11.51,1.3-17.11,2.06l-14,1.91-6.62,61.25,16.27-2.82,13.85-2.4s17.28-2.41,24.5-21.29C501,422.65,502,409.63,496.49,401.22ZM485,422.45c-1.29,7.3-6.48,14.81-12.64,15.62l-12,1.59,2.31-30.08c0-.19,6.77-1.08,7.43-1.17,2.72-.36,5.65-.64,8.32.17C484.41,410.4,486,416.35,485,422.45Z" transform="translate(-64.03 -19.4)"/><path class="cls-8" d="M297.61,366.58l15.56-2.21c-.66.06-1.95,21.49-2.12,23.42a9.24,9.24,0,0,1-.95,4c-1.37,2.33-4.84,3.82-7.18,5a48.3,48.3,0,0,1-9.55,3.41c-5.72,1.41-11.89,2.58-17.79,1.78a19.22,19.22,0,0,1-14.22-9.51c-7.23-12.25-.5-29.32-.5-29.32a43,43,0,0,1,28.72-22.7c17.87-4.61,26.8,6.43,26.8,6.43l-10.94,13c-8.1-8-19.39-6.76-26.41,2-6.72,7.83-4.42,17.76-4.41,17.77,1,4.37,4.59,6.83,8.92,7.18a18.22,18.22,0,0,0,6.4-.74c1.22-.35,5.47-1.57,5.66-3.12Z" transform="translate(-64.03 -19.4)"/><polygon class="cls-9" points="442.55 354.51 166.31 398.6 166.71 405.62 442.45 362.85 442.55 354.51"/><path class="cls-5" d="M274.09,236.42c-4.76,2.87-9.87,3.42-12.52,1.58a3.12,3.12,0,0,1-.4-.32c-.25-.28-.5-.58-.74-.87-20.17-24.37.47-53.78.47-53.78-.73,9,.71,18.19,5.09,26.16a41.75,41.75,0,0,0,6.22,8.59c2.59,2.72,5.69,4.37,8.57,6.66C282.72,227.66,279.73,233,274.09,236.42Z" transform="translate(-64.03 -19.4)"/><g class="cls-6"><path class="cls-7" d="M255.74,229.8a3.92,3.92,0,0,0,1.28,1,2.4,2.4,0,0,0,2.17,0,2.75,2.75,0,0,0,1.2-2.55c-.22-4.12-2.68-7.82-3.47-11.85a46,46,0,0,1-.47-13.55A99.15,99.15,0,0,1,260.9,183a16.75,16.75,0,0,1-1.77,2.88,60.82,60.82,0,0,0-3.74,7.81c-3.1,7.86-4.67,16.49-3.33,24.9C252.5,221.39,253.38,227.23,255.74,229.8Z" transform="translate(-64.03 -19.4)"/></g><path class="cls-5" d="M326,233.3c4.95,2.54,10.09,2.73,12.61.71a4,4,0,0,0,.38-.34c.23-.3.45-.61.68-.92,18.44-25.7-4.18-53.62-4.18-53.62a46.4,46.4,0,0,1-3.28,26.45,41.56,41.56,0,0,1-5.61,9c-2.4,2.9-5.37,4.75-8.09,7.24C316.78,225.16,320.13,230.3,326,233.3Z" transform="translate(-64.03 -19.4)"/><g class="cls-6"><path class="cls-7" d="M343.84,225.44a4.3,4.3,0,0,1-1.21,1.06,2.44,2.44,0,0,1-2.17.12,2.72,2.72,0,0,1-1.37-2.46c-.07-4.13,2.14-8,2.65-12.06a46,46,0,0,0-.47-13.56,99.51,99.51,0,0,0-5.8-19.41,17,17,0,0,0,2,2.75,60.07,60.07,0,0,1,4.26,7.54c3.64,7.62,5.79,16.13,5,24.61C346.49,216.83,346,222.71,343.84,225.44Z" transform="translate(-64.03 -19.4)"/></g></svg>