<svg xmlns="http://www.w3.org/2000/svg" width="210" height="210" viewBox="0 0 210 210">
    <defs>
        <clipPath id="pbm6kvs0xa">
            <path data-name="Rectangle 11" style="fill:none" d="M0 0h210v210H0z"/>
        </clipPath>
    </defs>
    <g data-name="Group 150" style="clip-path:url(#pbm6kvs0xa)">
        <path data-name="Path 1" d="M104.987 3.323A101.664 101.664 0 1 1 3.323 104.987 101.664 101.664 0 0 1 104.987 3.323" transform="translate(.558 -.515)" style="fill:#fff"/>
        <path data-name="Path 2" d="M105.544 2.811A101.664 101.664 0 1 1 3.883 104.472 101.664 101.664 0 0 1 105.544 2.811m0-3.9a105.588 105.588 0 0 0-41.09 202.826A105.588 105.588 0 0 0 146.635 7.211a104.905 104.905 0 0 0-41.091-8.3"/>
        <path data-name="Path 3" d="M16 66.281a123.633 123.633 0 0 0 38.125 6.675c31.89 0 65.039-11.794 97.882-11.794 14.352 0 27.408 1.614 37.54 5.119a94.693 94.693 0 0 0-86.669-56.9c-37.569 0-71.616 22.7-86.878 56.9" transform="translate(2.75 .533)" style="fill:#ff1400"/>
        <path data-name="Path 4" d="M189.591 123.19a123.636 123.636 0 0 0-38.125-6.675c-31.89 0-65.039 11.794-97.882 11.794-14.352 0-27.408-1.614-37.54-5.119a94.693 94.693 0 0 0 86.669 56.9c37.569 0 71.616-22.7 86.878-56.9" transform="translate(2.757 19.057)" style="fill:#0e0e96"/>
        <path data-name="Path 5" d="M59.067 84.837h33.924v9.689H72.508v5.012h16.105v9.32H72.508v5.012h20.717v9.689H59.067zm120.165 38.722h13.695V84.213l-13.6 4.816zm-43.685-8.5c2.551 6.635 10.167 9.8 21.517 9.8 10.807 0 18.354-4.64 18.354-12.84 0-14.211-24.091-10.692-24.091-15.874 0-1.5 1.741-2.645 4.823-2.645 4.272 0 6.615 1.369 7.483 4.13l10.887-4.117c-1.368-5.413-6.819-9.545-18.766-9.545-10.066 0-17.5 4.346-17.5 12.313 0 14.825 24.093 11.005 24.093 16.476 0 1.654-1.711 2.645-5.364 2.645-5.487 0-9.157-1.364-10.641-4.407zm-94.372-2.484-9.658 3.61v7.378H18.072v-38.72h20.943c10.882 0 16.308 4.673 16.308 12.968 0 8.59-5.983 11.763-14.148 14.761m-4.208-18.05h-5.449v11.615l5.089-2.058c3.257-1.221 5.09-2.661 5.09-5.663 0-2.468-1.738-3.894-4.73-3.894m84.759 18.05-9.658 3.61v7.378H98.622V84.843h20.943c10.882 0 16.308 4.673 16.308 12.968 0 8.59-5.983 11.763-14.148 14.761m-4.208-18.05h-5.449v11.615l5.089-2.058c3.257-1.221 5.09-2.661 5.09-5.663 0-2.468-1.738-3.894-4.73-3.894"/>
    </g>
</svg>
